<?xml version="1.0" encoding="utf-8"?>
<!-- Generator: Adobe Illustrator 26.0.2, SVG Export Plug-In . SVG Version: 6.00 Build 0)  -->
<!DOCTYPE svg PUBLIC "-//W3C//DTD SVG 1.1//EN" "http://www.w3.org/Graphics/SVG/1.1/DTD/svg11.dtd" [
	<!ENTITY ns_extend "http://ns.adobe.com/Extensibility/1.0/">
	<!ENTITY ns_ai "http://ns.adobe.com/AdobeIllustrator/10.0/">
	<!ENTITY ns_graphs "http://ns.adobe.com/Graphs/1.0/">
	<!ENTITY ns_vars "http://ns.adobe.com/Variables/1.0/">
	<!ENTITY ns_imrep "http://ns.adobe.com/ImageReplacement/1.0/">
	<!ENTITY ns_sfw "http://ns.adobe.com/SaveForWeb/1.0/">
	<!ENTITY ns_custom "http://ns.adobe.com/GenericCustomNamespace/1.0/">
	<!ENTITY ns_adobe_xpath "http://ns.adobe.com/XPath/1.0/">
]>
<svg version="1.1" id="Layer_1" xmlns:x="&ns_extend;" xmlns:i="&ns_ai;" xmlns:graph="&ns_graphs;"
	 xmlns="http://www.w3.org/2000/svg" xmlns:xlink="http://www.w3.org/1999/xlink" x="0px" y="0px" viewBox="0 0 177 54"
	 style="enable-background:new 0 0 177 54;" xml:space="preserve">
<style type="text/css">
	.st0{clip-path:url(#SVGID_00000015325936741679780250000008209204211580926880_);}
	.st1{clip-path:url(#SVGID_00000182525766467634494930000008392446063198286249_);fill:#1D1D1B;}
</style>
<metadata>
	<sfw  xmlns="&ns_sfw;">
		<slices></slices>
		<sliceSourceBounds  bottomLeftOrigin="true" height="159.8" width="226" x="-41" y="-108.6"></sliceSourceBounds>
	</sfw>
</metadata>
<g>
	<g>
		<defs>
			<rect id="SVGID_1_" x="-41" y="-51.2" width="226" height="159.8"/>
		</defs>
		<clipPath id="SVGID_00000147932632284573397180000000839874195067936438_">
			<use xlink:href="#SVGID_1_"  style="overflow:visible;"/>
		</clipPath>
		<g style="clip-path:url(#SVGID_00000147932632284573397180000000839874195067936438_);">
			<defs>
				<rect id="SVGID_00000138572084473465680750000013953081697728463491_" x="-41" y="-51.2" width="226" height="159.8"/>
			</defs>
			<clipPath id="SVGID_00000114770256626841738870000000884203871828062599_">
				<use xlink:href="#SVGID_00000138572084473465680750000013953081697728463491_"  style="overflow:visible;"/>
			</clipPath>
			<path style="clip-path:url(#SVGID_00000114770256626841738870000000884203871828062599_);fill:#1D1D1B;" d="M117.6,53
				c-0.5,0-1.1,0-1.6,0c-3.1-0.1-5.7-0.4-8.1-0.9c-3.1-0.6-6.1-1.5-8.8-2.7c-4.7-2.1-8.4-4.7-11.3-8.1c-2.2-2.5-3.7-5.3-4.6-8.3
				c0,0,0-0.1,0-0.1c-0.1-0.3-0.2-0.6-0.1-0.9c0.2-1.2,0.9-1.8,2.1-1.8c0.4,0,0.8,0,1.1,0c1,0,2,0,3,0c1,0,2,0,3,0c0.7,0,1.3,0,2,0
				h0c0.9,0,1.5,0.3,2.1,1c1.2,1.3,2.4,2.7,3.5,4c0.4,0.4,0.7,0.8,1.1,1.2c1.2,1.3,1.7,1.9,2.3,2.6c0.5,0.5,1,1.1,2,2.2
				c0.5,0.6,1.2,0.9,2,0.9c0.6,0,1.2-0.2,1.7-0.7c0.5-0.4,0.7-1,0.8-1.6c0-0.7-0.2-1.4-0.7-2c-0.5-0.6-1.1-1.2-1.6-1.8
				c-0.3-0.3-0.6-0.6-0.9-1c-0.9-1-1.2-1.3-1.6-1.7c-0.3-0.4-0.7-0.8-1.5-1.7c-0.4-0.4-0.3-0.7-0.2-0.9c0.1-0.3,0.4-0.5,0.8-0.5h0
				c1.8,0,3.6,0,5.9,0h0.9c0.4,0,0.8,0.1,1.1,0.3c0.3,0.2,0.5,0.5,0.8,0.7l0.5,0.6c1.6,1.8,3.2,3.6,4.8,5.3c0.6,0.6,1.4,1.5,2.2,2.5
				c1.4,1.6,2.9,3.3,3.8,4.3c1,1.1,2.1,2.3,3.2,3.6c0.5,0.5,1.1,0.8,1.8,0.8c0.2,0,0.3,0,0.5,0c0.9-0.2,1.7-0.8,2-1.7
				c0.3-0.9,0.1-1.8-0.5-2.5c-0.7-0.8-2.4-2.7-3.6-4.1c-0.4-0.4-0.8-0.8-1-1.1c-0.6-0.7-1.2-1.3-1.8-2c-1.1-1.3-2.2-2.5-3.4-3.8
				l-0.2-0.2c-0.4-0.5-0.9-1-1.3-1.5c-0.3-0.3-0.2-0.6-0.1-0.7c0.2-0.3,0.4-0.5,0.7-0.5c0.1,0,0.2,0,0.3,0c0,0,0.2,0,0.2,0
				c0.6,0,1.1,0,1.7,0c0.6,0,1.2,0,1.7,0c0.8,0,1.5,0,2.1,0l0,0c0.9,0,1.6,0.3,2.1,0.9c1.2,1.3,2.6,2.9,4,4.4
				c1.3,1.4,2.6,2.8,3.7,4.1c0.5,0.6,1.3,0.9,2,0.9c0.6,0,1.2-0.2,1.6-0.6c0.5-0.5,0.8-1.1,0.8-1.7c0-0.7-0.2-1.4-0.7-2
				c-0.5-0.5-1-1.1-1.6-1.7c-0.9-1-1.9-2.1-2.6-2.9c-0.3-0.3-0.3-0.6-0.2-0.9c0.1-0.2,0.2-0.4,0.8-0.4c0.2,0,0.4,0,0.7,0
				c0.2,0,0.4,0,0.6,0c0.2,0,0.3,0,0.5,0c0.5,0,1.3,0,2.2,0c2.3,0,5.4,0,8,0c2,0,3.5,0,4.4,0c1.5,0,2.8-1.1,3.1-2.7
				c0.2-1.5-0.7-2.9-2.1-3.5c-0.5-0.2-1-0.2-1.4-0.2l-2.1,0c-6,0-15.7,0-20.7,0c-0.5,0-0.8-0.1-0.9-0.4c-0.2-0.4-0.1-0.7,0.2-1.1
				c1.6-1.8,3.2-3.7,4.7-5.5c0.5-0.6,1-1.1,1.4-1.7c0.9-1.1,0.8-2.6-0.2-3.5c-0.5-0.4-1.1-0.7-1.7-0.7c-0.7,0-1.3,0.3-1.8,0.8
				c-0.4,0.4-0.8,0.9-1.2,1.4l-0.2,0.2l-0.8,0.9c-2.4,2.8-4.9,5.8-7.3,8.7c-0.6,0.7-1.2,1-2.1,1c0,0,0,0-0.1,0c-1.7,0-3.5,0-5.2-0.1
				l-0.6,0c-0.5,0-0.7-0.1-0.9-0.5c-0.2-0.3-0.1-0.6,0.2-1c0.1-0.1,0.2-0.3,0.3-0.4c0.2-0.2,0.4-0.4,0.6-0.7c1.3-1.4,2.9-3.2,4.4-5
				c1.5-1.7,3-3.4,4.2-4.8c0.1-0.1,0.3-0.3,0.4-0.4c0.3-0.3,0.6-0.7,0.9-1c0.6-0.7,0.8-1.4,0.7-2.1c-0.2-1.1-0.8-1.9-1.9-2.1
				c-0.2-0.1-0.5-0.1-0.7-0.1c-0.7,0-1.4,0.3-1.9,0.9c-0.4,0.4-0.8,0.9-1.1,1.3c-0.4,0.5-0.9,1-1.3,1.5c-1.7,1.9-3.7,4.2-5.6,6.4
				c-2.1,2.4-4.3,5-6.2,7.1c-0.5,0.5-1,0.8-1.6,0.8c-0.5,0-1.1,0-1.6,0c-1.1,0-2.2,0-3.3,0l-0.2,0c-0.3,0-0.5-0.1-0.6-0.2
				c-0.2-0.2-0.4-0.6,0.1-1.2c0.8-1,1.9-2.3,3-3.6c1-1.1,1.9-2.2,2.5-3c0.1-0.2,0.3-0.3,0.4-0.5c0.6-0.7,1.2-1.4,1.7-2.1
				c0.6-0.8,0.7-1.7,0.2-2.6c-0.5-0.9-1.2-1.4-2.3-1.4c0,0,0,0-0.1,0c-1,0-1.7,0.6-2.1,1.2c-1.9,2.3-4.2,5-6.4,7.7
				c-1.4,1.7-2.8,3.4-4.1,4.9c-0.5,0.7-1.2,0.9-2,0.9h0c-1.7,0-1.5,0-13.4,0c-7.1,0-13.4,0-18.2,0c-2.3,0-52.6,0-52.6,0
				c-0.3,0-0.5,0-0.8,0c-0.3,0-0.5,0-0.8,0c-0.2,0-0.3,0-0.5,0c-0.3,0-0.5-0.1-0.6-0.4c-0.1-0.3-0.1-0.5,0-0.7
				c0.1-0.2,0.4-0.4,0.7-0.4c1.2,0,57.7,0,65.2,0l6.5,0c4.5,0,6.2,0,6.7,0c0.8,0,1.2-0.3,1.5-1.1c1.2-3.3,3.1-6.4,5.7-9.1
				c1.9-2,4.2-3.8,6.7-5.3c3.1-1.8,6.5-3.2,10.1-4.2c2.7-0.7,5.5-1.2,8.2-1.3c0.2,0,0.4,0,0.5,0c0.4,0,0.8,0,1.3-0.1h3.1
				c0,0,0.1,0,0.1,0c0.1,0,0.2,0,0.3,0.1c3.6,0.2,7.3,1.1,11.3,2.5c4,1.5,8,3.5,11.9,6.1c2.6,1.7,5.1,3.7,7.5,5.8
				c2,1.7,3.8,3.6,5.6,5.5c1.6,1.8,3.5,3.9,5.3,6.3V28c-1.7,2.5-3.6,4.9-5.6,7c-2.8,3.1-5.9,5.8-9.2,8.2c-4.2,3-8.8,5.4-13.6,7.1
				c-2.9,1-5.8,1.8-8.6,2.2C121.9,52.8,119.7,53,117.6,53"/>
			
				<rect x="3.4" y="4.2" style="clip-path:url(#SVGID_00000114770256626841738870000000884203871828062599_);fill:#1D1D1B;" width="2.9" height="14.7"/>
			<polygon style="clip-path:url(#SVGID_00000114770256626841738870000000884203871828062599_);fill:#1D1D1B;" points="9.6,4.2 
				14,4.2 16.7,14.2 19.3,4.2 23.7,4.2 23.7,18.8 21,18.8 21,7.3 18.1,18.8 15.2,18.8 12.3,7.3 12.3,18.8 9.6,18.8 			"/>
			<path style="clip-path:url(#SVGID_00000114770256626841738870000000884203871828062599_);fill:#1D1D1B;" d="M26.7,4.2h4.8
				c2.6,0,3.4,0.1,4.2,0.5c0.9,0.5,2.3,1.6,2.3,4.1c0,2.6-1.5,3.7-2.4,4.1c-1,0.5-2.6,0.5-3.9,0.5h-1.9v5.5h-2.9V4.2z M29.6,6.6v4.2
				h1.6c1.5,0,3.6,0,3.6-2.1c0-0.6-0.2-1.1-0.7-1.5c-0.7-0.6-1.3-0.6-3.1-0.6H29.6z"/>
			<path style="clip-path:url(#SVGID_00000114770256626841738870000000884203871828062599_);fill:#1D1D1B;" d="M47.4,18.8l-1.3-3.3
				h-5.9l-1.2,3.3h-3.2l5.7-14.7h3.1l5.9,14.7H47.4z M45.2,13l-2-5.4l-2,5.4H45.2z"/>
			<path style="clip-path:url(#SVGID_00000114770256626841738870000000884203871828062599_);fill:#1D1D1B;" d="M62.7,14.3
				c-0.3,1.1-1.3,4.7-6.1,4.7c-4,0-6.7-2.9-6.7-7.5c0-4.1,2.1-7.7,6.8-7.7c0.8,0,2.9,0.1,4.5,1.7c0.7,0.7,1.1,1.6,1.4,2.6l-2.9,0.7
				c-0.4-1.6-1.6-2.5-3.1-2.5c-3.6,0-3.6,4-3.6,5c0,2.6,0.7,5.1,3.6,5.1c2,0,2.9-1.5,3.2-3.1L62.7,14.3z"/>
			<polygon style="clip-path:url(#SVGID_00000114770256626841738870000000884203871828062599_);fill:#1D1D1B;" points="67.3,6.6 
				63,6.6 63,4.2 74.6,4.2 74.6,6.6 70.3,6.6 70.3,18.8 67.3,18.8 			"/>
			<path style="clip-path:url(#SVGID_00000114770256626841738870000000884203871828062599_);fill:#1D1D1B;" d="M11.1,30.5
				c-0.6-1.7-1.6-2.6-3.3-2.6c-2.6,0-4.1,1.8-4.1,4.9c0,3.3,1.5,5.1,4,5.1c1.7,0,3.1-1,3.6-3.1l1.6,0.4c-0.7,2.7-2.6,4.1-5.1,4.1
				c-1.9,0-3.2-0.5-4.2-1.7c-1-1.2-1.6-2.8-1.6-4.8c0-3.9,2.4-6.3,5.8-6.3c2.5,0,4.2,1.3,4.9,3.6L11.1,30.5z"/>
			<path style="clip-path:url(#SVGID_00000114770256626841738870000000884203871828062599_);fill:#1D1D1B;" d="M18.4,29.9
				c1.3,0,2.5,0.5,3.3,1.5c0.7,0.9,0.9,1.9,0.9,3.2c0,3.1-1.8,4.7-4.2,4.7c-1.3,0-2.5-0.5-3.3-1.5c-0.7-0.9-0.9-1.9-0.9-3.2
				C14.2,31.5,16,29.9,18.4,29.9 M18.4,38c1.5,0,2.6-1.2,2.6-3.4c0-2.2-1.1-3.4-2.6-3.4c-1.6,0-2.6,1.2-2.6,3.4
				C15.7,36.8,16.8,38,18.4,38"/>
			<path style="clip-path:url(#SVGID_00000114770256626841738870000000884203871828062599_);fill:#1D1D1B;" d="M31.1,39.1h-1.5v-5.8
				c0-1.3-0.4-2-1.6-2c-0.8,0-1.5,0.4-1.8,1c-0.3,0.6-0.4,1.3-0.4,2.2v4.6h-1.5v-8.9h1.4v1.2c0.6-0.9,1.6-1.4,2.7-1.4
				c1.2,0,2.1,0.5,2.5,1.6c0.7-1,1.6-1.6,2.8-1.6c1.8,0,2.8,1,2.8,3v6.1h-1.5v-5.6c0-1.1-0.2-2.2-1.6-2.2c-1.2,0-2.2,0.8-2.2,2.6
				V39.1z"/>
			<path style="clip-path:url(#SVGID_00000114770256626841738870000000884203871828062599_);fill:#1D1D1B;" d="M40.1,31.3
				c0.6-0.9,1.4-1.4,2.6-1.4c2.3,0,3.8,1.8,3.8,4.5c0,3-1.7,4.8-3.9,4.8c-0.9,0-1.8-0.4-2.3-1.1v4.4h-1.5V30.1h1.4V31.3z M42.5,38
				c1.4,0,2.5-1.1,2.5-3.5c0-2.2-1-3.4-2.4-3.4c-1.4,0-2.5,1.4-2.5,3.5C40.1,36.9,41.1,38,42.5,38"/>
			<path style="clip-path:url(#SVGID_00000114770256626841738870000000884203871828062599_);fill:#1D1D1B;" d="M54.1,33.4v-0.3
				c0-1.1-0.3-2-2.2-2c-1.7,0-2.1,0.8-2.3,1.7l-1.5-0.2c0.4-1.8,1.6-2.8,4-2.8c1.4,0,2.4,0.3,3,1c0.5,0.6,0.5,1.3,0.5,2.3v3.2
				c0,1.1,0.1,1.9,0.5,2.7h-1.6c-0.2-0.4-0.3-0.8-0.3-1.1c-1,0.9-2.1,1.3-3.2,1.3c-2,0-3.1-1.1-3.1-2.6c0-1.4,1-2.5,2.8-2.7
				C51.9,33.8,53.2,33.7,54.1,33.4 M54.1,34.6c-2.1,0.8-4.6,0.3-4.6,2.1c0,0.8,0.6,1.4,1.9,1.4c0.7,0,1.6-0.3,2.1-0.8
				c0.6-0.6,0.7-1.3,0.7-2.1V34.6z"/>
			<path style="clip-path:url(#SVGID_00000114770256626841738870000000884203871828062599_);fill:#1D1D1B;" d="M59.3,31.4
				c0.7-1,1.7-1.5,2.8-1.5c1.2,0,2.2,0.5,2.7,1.3c0.4,0.7,0.4,1.4,0.4,2.3v5.5h-1.5v-5.4c0-1.3-0.4-2.4-1.9-2.4
				c-0.9,0-1.7,0.4-2.1,1.1c-0.3,0.5-0.3,1.1-0.3,1.8v4.9h-1.5v-8.9h1.4V31.4z"/>
			<path style="clip-path:url(#SVGID_00000114770256626841738870000000884203871828062599_);fill:#1D1D1B;" d="M71.1,39.2
				c-0.8,2.1-1.3,3.5-3,3.5c-0.4,0-0.7-0.1-1-0.2L67,41.1c0.2,0.1,0.5,0.1,0.9,0.1c1.3,0,1.4-0.8,1.9-2.1l-3.4-9H68l1.9,5.2
				c0.3,0.7,0.5,1.4,0.6,2.1c0.1-0.4,0.3-1.1,0.6-2.1l1.9-5.2h1.5L71.1,39.2z"/>
		</g>
	</g>
</g>
</svg>
