<?xml version="1.0" encoding="utf-8"?>
<!-- Generator: Adobe Illustrator 26.0.0, SVG Export Plug-In . SVG Version: 6.00 Build 0)  -->
<svg version="1.1" id="Layer_1" xmlns="http://www.w3.org/2000/svg" xmlns:xlink="http://www.w3.org/1999/xlink" x="0px" y="0px"
	 viewBox="0 0 47.32 50" style="enable-background:new 0 0 47.32 50;" xml:space="preserve">
<style type="text/css">
	.st0{fill:url(#SVGID_1_);}
	.st1{fill:url(#SVGID_00000080925479498998158500000006073952732811932330_);}
	.st2{fill:url(#SVGID_00000083073256738870790580000011555337486099652999_);}
	.st3{fill:url(#SVGID_00000067206680944064718580000006338201719782002619_);}
	.st4{fill:#EDF5FE;}
	.st5{filter:url(#Adobe_OpacityMaskFilter);}
	.st6{filter:url(#Adobe_OpacityMaskFilter_00000081641592878599989240000006343254154759272855_);}
	
		.st7{mask:url(#SVGID_00000005269038964459588590000011874186408571880874_);fill:url(#SVGID_00000005986114539226009010000017856582085753827974_);}
	.st8{fill:url(#SVGID_00000111154000646894254240000017952258501054769297_);}
	.st9{fill:url(#SVGID_00000017503488801104620160000008591130722277790911_);}
	.st10{fill:url(#SVGID_00000103965033573848181850000006350051011182044079_);}
	.st11{fill:url(#SVGID_00000098934052957446895030000011031748405135489979_);}
	.st12{fill:url(#SVGID_00000082365698539003851400000015912472647970539649_);}
	.st13{fill:#FFFFFF;}
	.st14{fill:url(#SVGID_00000137840684886631725260000014615006936325534387_);}
	.st15{fill:url(#SVGID_00000000945088733812554020000018356407128510241163_);}
	.st16{fill:url(#SVGID_00000003101871809257501320000015499335213469136256_);}
	.st17{fill:url(#SVGID_00000136398786161449871090000011580291331097639066_);}
	.st18{fill:url(#SVGID_00000107578240130866654550000005031455033256638894_);}
	.st19{fill:url(#SVGID_00000152976161060676919720000016030771344063634063_);}
	.st20{fill:url(#SVGID_00000122688515660577580110000012076003784850297271_);}
	.st21{fill:url(#SVGID_00000092423201798036904830000001270280538417887880_);}
	.st22{fill:url(#SVGID_00000178194078620169768120000007059700704464102563_);}
	.st23{filter:url(#Adobe_OpacityMaskFilter_00000101085377819376870860000011467810748714372789_);}
	.st24{filter:url(#Adobe_OpacityMaskFilter_00000024715379759431154440000009790716750826175623_);}
	
		.st25{mask:url(#SVGID_00000168812209942043774410000003030793359873218228_);fill:url(#SVGID_00000055687299045408598480000004340113992314309007_);}
	.st26{fill:url(#SVGID_00000013158729413403364350000012882367767512679072_);}
	.st27{fill:url(#SVGID_00000101076420469159303010000000991308439697601715_);}
	.st28{fill:url(#SVGID_00000094580969727691306510000017060794999097303683_);}
	.st29{fill:url(#SVGID_00000179646183986807521420000006797765057325725113_);}
	.st30{fill:url(#SVGID_00000121971145790388111210000018107974164806294920_);}
	.st31{fill:url(#SVGID_00000141434295498283670350000000116590107505379509_);}
	.st32{fill:url(#SVGID_00000156586744843501028570000003390117700664459960_);}
	.st33{filter:url(#Adobe_OpacityMaskFilter_00000065060773004804402960000010617130985140474272_);}
	.st34{filter:url(#Adobe_OpacityMaskFilter_00000095340434345015376660000016129375935688380296_);}
	
		.st35{mask:url(#SVGID_00000101073897783825894360000002110969590987287185_);fill:url(#SVGID_00000053526439370016404040000015187614668972062854_);}
	.st36{fill:url(#SVGID_00000013167969761356533190000018234097763905341872_);}
	.st37{fill:url(#SVGID_00000160871776552787965330000011526937106045138621_);}
	.st38{fill:url(#SVGID_00000090296858987684659560000017869628082812560566_);}
</style>
<g>
	<g>
		<linearGradient id="SVGID_1_" gradientUnits="userSpaceOnUse" x1="23.6886" y1="43.2569" x2="23.6886" y2="3.637979e-12">
			<stop  offset="0" style="stop-color:#2B65F5"/>
			<stop  offset="1" style="stop-color:#487EF8"/>
		</linearGradient>
		<circle class="st0" cx="23.69" cy="21.63" r="21.63"/>
		
			<linearGradient id="SVGID_00000040561780442908408560000013555907789061392787_" gradientUnits="userSpaceOnUse" x1="23.6886" y1="41.8678" x2="23.6886" y2="1.3891">
			<stop  offset="0" style="stop-color:#56ABF9"/>
			<stop  offset="1" style="stop-color:#191E96"/>
		</linearGradient>
		<circle style="fill:url(#SVGID_00000040561780442908408560000013555907789061392787_);" cx="23.69" cy="21.63" r="20.24"/>
		
			<linearGradient id="SVGID_00000160184954078932454540000005644614831527967898_" gradientUnits="userSpaceOnUse" x1="23.6886" y1="41.0691" x2="23.6886" y2="2.1878">
			<stop  offset="0" style="stop-color:#00B598"/>
			<stop  offset="1" style="stop-color:#053FFC"/>
		</linearGradient>
		<circle style="fill:url(#SVGID_00000160184954078932454540000005644614831527967898_);" cx="23.69" cy="21.63" r="19.44"/>
		
			<linearGradient id="SVGID_00000133488328388445779200000017590299120334636184_" gradientUnits="userSpaceOnUse" x1="23.6577" y1="50" x2="23.6577" y2="29.7754">
			<stop  offset="0" style="stop-color:#7FDFFA"/>
			<stop  offset="1" style="stop-color:#7EDFFA"/>
		</linearGradient>
		<path style="fill:url(#SVGID_00000133488328388445779200000017590299120334636184_);" d="M35.45,48.2
			c0.12,1.22-1.11,2.12-2.23,1.64l-5.57-2.36l-3.96-1.68l-3.96,1.68l-5.63,2.39c-1.11,0.47-2.32-0.4-2.23-1.6l1.41-18.49h20.37
			L35.45,48.2z"/>
		<polygon class="st4" points="27.65,33.82 27.65,47.49 23.69,45.81 19.73,47.49 19.73,33.82 		"/>
		<defs>
			<filter id="Adobe_OpacityMaskFilter" filterUnits="userSpaceOnUse" x="8.22" y="7.94" width="30.93" height="30.93">
				<feFlood  style="flood-color:white;flood-opacity:1" result="back"/>
				<feBlend  in="SourceGraphic" in2="back" mode="normal"/>
			</filter>
		</defs>
		
			<mask maskUnits="userSpaceOnUse" x="8.22" y="7.94" width="30.93" height="30.93" id="SVGID_00000054964160163684545490000013856655701630644368_">
			<g class="st5">
				<defs>
					
						<filter id="Adobe_OpacityMaskFilter_00000080206931332168717000000012225705685141552807_" filterUnits="userSpaceOnUse" x="8.22" y="7.94" width="30.93" height="30.93">
						<feFlood  style="flood-color:white;flood-opacity:1" result="back"/>
						<feBlend  in="SourceGraphic" in2="back" mode="normal"/>
					</filter>
				</defs>
				
					<mask maskUnits="userSpaceOnUse" x="8.22" y="7.94" width="30.93" height="30.93" id="SVGID_00000054964160163684545490000013856655701630644368_">
				</mask>
				
					<linearGradient id="SVGID_00000166667167491382813710000014555044831204387493_" gradientUnits="userSpaceOnUse" x1="23.6886" y1="38.8767" x2="23.6886" y2="7.943">
					<stop  offset="0" style="stop-color:#1A1A1A"/>
					<stop  offset="1" style="stop-color:#FFFFFF"/>
				</linearGradient>
				
					<path style="mask:url(#SVGID_00000054964160163684545490000013856655701630644368_);fill:url(#SVGID_00000166667167491382813710000014555044831204387493_);" d="
					M26.19,9.06L26.19,9.06c2.13-2.36,6.03-0.74,5.87,2.43v0c-0.1,2,1.54,3.64,3.54,3.54h0c3.17-0.16,4.79,3.74,2.43,5.87l0,0
					c-1.48,1.34-1.48,3.67,0,5.01l0,0c2.36,2.13,0.74,6.03-2.43,5.87h0c-2-0.1-3.64,1.54-3.54,3.54v0c0.16,3.17-3.74,4.79-5.87,2.43
					l0,0c-1.34-1.48-3.67-1.48-5.01,0l0,0c-2.13,2.36-6.03,0.74-5.87-2.43v0c0.1-2-1.54-3.64-3.54-3.54h0
					c-3.17,0.16-4.79-3.74-2.43-5.87l0,0c1.48-1.34,1.48-3.67,0-5.01l0,0c-2.36-2.13-0.74-6.03,2.43-5.87h0
					c2,0.1,3.64-1.54,3.54-3.54v0c-0.16-3.17,3.74-4.79,5.87-2.43l0,0C22.52,10.55,24.85,10.55,26.19,9.06z"/>
			</g>
		</mask>
		
			<linearGradient id="SVGID_00000049193010676288294110000015783190392069443003_" gradientUnits="userSpaceOnUse" x1="23.6886" y1="38.8767" x2="23.6886" y2="7.943">
			<stop  offset="0" style="stop-color:#000000"/>
			<stop  offset="1" style="stop-color:#000000"/>
		</linearGradient>
		<path style="fill:url(#SVGID_00000049193010676288294110000015783190392069443003_);" d="M26.19,9.06L26.19,9.06
			c2.13-2.36,6.03-0.74,5.87,2.43v0c-0.1,2,1.54,3.64,3.54,3.54h0c3.17-0.16,4.79,3.74,2.43,5.87l0,0c-1.48,1.34-1.48,3.67,0,5.01
			l0,0c2.36,2.13,0.74,6.03-2.43,5.87h0c-2-0.1-3.64,1.54-3.54,3.54v0c0.16,3.17-3.74,4.79-5.87,2.43l0,0
			c-1.34-1.48-3.67-1.48-5.01,0l0,0c-2.13,2.36-6.03,0.74-5.87-2.43v0c0.1-2-1.54-3.64-3.54-3.54h0c-3.17,0.16-4.79-3.74-2.43-5.87
			l0,0c1.48-1.34,1.48-3.67,0-5.01l0,0c-2.36-2.13-0.74-6.03,2.43-5.87h0c2,0.1,3.64-1.54,3.54-3.54v0
			c-0.16-3.17,3.74-4.79,5.87-2.43l0,0C22.52,10.55,24.85,10.55,26.19,9.06z"/>
		
			<linearGradient id="SVGID_00000077312411249196322350000018029317220731364517_" gradientUnits="userSpaceOnUse" x1="8.2217" y1="21.6284" x2="39.1554" y2="21.6284">
			<stop  offset="0" style="stop-color:#FFFFFF"/>
			<stop  offset="1" style="stop-color:#05A0D1"/>
		</linearGradient>
		<path style="fill:url(#SVGID_00000077312411249196322350000018029317220731364517_);" d="M26.19,7.28L26.19,7.28
			c2.13-2.36,6.03-0.74,5.87,2.43v0c-0.1,2,1.54,3.64,3.54,3.54h0c3.17-0.16,4.79,3.74,2.43,5.87l0,0c-1.48,1.34-1.48,3.67,0,5.01
			l0,0c2.36,2.13,0.74,6.03-2.43,5.87h0c-2-0.1-3.64,1.54-3.54,3.54v0c0.16,3.17-3.74,4.79-5.87,2.43l0,0
			c-1.34-1.48-3.67-1.48-5.01,0l0,0c-2.13,2.36-6.03,0.74-5.87-2.43v0c0.1-2-1.54-3.64-3.54-3.54h0c-3.17,0.16-4.79-3.74-2.43-5.87
			l0,0c1.48-1.34,1.48-3.67,0-5.01l0,0c-2.36-2.13-0.74-6.03,2.43-5.87h0c2,0.1,3.64-1.54,3.54-3.54v0
			c-0.16-3.17,3.74-4.79,5.87-2.43l0,0C22.52,8.77,24.85,8.77,26.19,7.28z"/>
		
			<linearGradient id="SVGID_00000174593243466841216060000012699035837830693018_" gradientUnits="userSpaceOnUse" x1="23.6883" y1="31.9398" x2="23.6883" y2="11.3172">
			<stop  offset="0" style="stop-color:#1A6DF6"/>
			<stop  offset="1" style="stop-color:#175CD8"/>
		</linearGradient>
		<path style="fill:url(#SVGID_00000174593243466841216060000012699035837830693018_);" d="M34,21.63c0,0.3-0.01,0.6-0.04,0.89
			c-0.45,5.28-4.88,9.42-10.27,9.42c-5.4,0-9.82-4.14-10.27-9.42c-0.03-0.29-0.04-0.59-0.04-0.89c0-5.69,4.62-10.31,10.31-10.31
			C29.38,11.32,34,15.93,34,21.63z"/>
		<path class="st4" d="M24.35,16.51l1.26,2.56c0.11,0.22,0.32,0.37,0.56,0.4L29,19.89c0.61,0.09,0.85,0.83,0.41,1.26l-2.04,1.99
			c-0.17,0.17-0.25,0.41-0.21,0.65l0.48,2.81c0.1,0.6-0.53,1.06-1.07,0.78l-2.53-1.33c-0.22-0.11-0.47-0.11-0.69,0l-2.53,1.33
			c-0.54,0.29-1.18-0.18-1.07-0.78l0.48-2.81c0.04-0.24-0.04-0.48-0.21-0.65l-2.04-1.99c-0.44-0.43-0.2-1.17,0.41-1.26l2.82-0.41
			c0.24-0.03,0.45-0.19,0.56-0.4l1.26-2.56C23.3,15.96,24.08,15.96,24.35,16.51z"/>
	</g>
	<g>
		<path class="st13" d="M4.96,24.61L4.96,24.61c0-1.06-0.86-1.92-1.92-1.92v0c1.06,0,1.92-0.86,1.92-1.92h0
			c0,1.06,0.86,1.92,1.92,1.92v0C5.82,22.7,4.96,23.55,4.96,24.61z"/>
		<circle class="st13" cx="1.11" cy="29.04" r="1.11"/>
		<circle class="st13" cx="38.12" cy="7.87" r="1.19"/>
		<path class="st13" d="M41.33,2.75c0,0.34-0.27,0.61-0.61,0.61c-0.34,0-0.61-0.27-0.61-0.61s0.27-0.61,0.61-0.61
			C41.06,2.15,41.33,2.42,41.33,2.75z"/>
		<path class="st13" d="M44.34,41.11L44.34,41.11c0-1.64-1.33-2.98-2.98-2.98v0c1.64,0,2.98-1.33,2.98-2.98h0
			c0,1.64,1.33,2.98,2.98,2.98v0C45.67,38.13,44.34,39.47,44.34,41.11z"/>
	</g>
</g>
</svg>
